<?xml version="1.0" encoding="utf-8"?>
<!-- Generator: Adobe Illustrator 18.0.0, SVG Export Plug-In . SVG Version: 6.00 Build 0)  -->
<!DOCTYPE svg PUBLIC "-//W3C//DTD SVG 1.1//EN" "http://www.w3.org/Graphics/SVG/1.1/DTD/svg11.dtd">
<svg version="1.1" id="Layer_1" xmlns:sketch="http://www.bohemiancoding.com/sketch/ns"
	 xmlns="http://www.w3.org/2000/svg" xmlns:xlink="http://www.w3.org/1999/xlink" x="0px" y="0px" viewBox="9 11 83.5 83.5"
	 enable-background="new 9 11 83.5 83.5" xml:space="preserve">
<title>Imported Layers 2</title>
<desc>Created with Sketch.</desc>
<g id="Page-1" sketch:type="MSPage">
	<path id="Imported-Layers-2" sketch:type="MSShapeGroup" fill="none" stroke="#3EE39C" stroke-width="4" d="M82.2,84.2
		c-11.1,11.1-51.7,11.1-62.9,0s-11.1-51.7,0-62.9c11.1-11.1,51.7-11.1,62.9,0C93.3,32.4,93.3,73.1,82.2,84.2"/>
	<g id="Imported-Layers" transform="translate(29.000000, 31.000000)" sketch:type="MSLayerGroup">
		<path id="Fill-1" sketch:type="MSShapeGroup" fill="#3EE39C" d="M20.6,42.1c-11.5,0-20.9-9.4-20.9-20.9c0-11.5,9.4-20.9,20.9-20.9
			s20.9,9.4,20.9,20.9C41.5,32.7,32.1,42.1,20.6,42.1L20.6,42.1z M20.6,4.3c-9.3,0-16.9,7.6-16.9,16.9c0,9.3,7.6,16.9,16.9,16.9
			s16.9-7.6,16.9-16.9C37.5,11.9,29.9,4.3,20.6,4.3L20.6,4.3z"/>
		<path id="Fill-2" sketch:type="MSShapeGroup" fill="#3EE39C" d="M23.2,18.6l-11.8-6.8l6.8,11.8l11.8,6.8L23.2,18.6"/>
	</g>
</g>
</svg>
