<?xml version="1.0" encoding="utf-8"?>
<!-- Generator: Adobe Illustrator 18.0.0, SVG Export Plug-In . SVG Version: 6.00 Build 0)  -->
<!DOCTYPE svg PUBLIC "-//W3C//DTD SVG 1.1//EN" "http://www.w3.org/Graphics/SVG/1.1/DTD/svg11.dtd">
<svg version="1.1" id="Layer_1" xmlns:sketch="http://www.bohemiancoding.com/sketch/ns"
	 xmlns="http://www.w3.org/2000/svg" xmlns:xlink="http://www.w3.org/1999/xlink" x="0px" y="0px" viewBox="6 7 83.5 83.5"
	 enable-background="new 6 7 83.5 83.5" xml:space="preserve">
<title>Imported Layers 2</title>
<desc>Created with Sketch.</desc>
<g id="Page-1" sketch:type="MSPage">
	<path id="Imported-Layers-2" sketch:type="MSShapeGroup" fill="none" stroke="#45AAF6" stroke-width="4" d="M79.2,80.2
		c-11.1,11.1-51.7,11.1-62.9,0s-11.1-51.7,0-62.9c11.1-11.1,51.7-11.1,62.9,0C90.3,28.4,90.3,69.1,79.2,80.2"/>
	<path id="Imported-Layers" sketch:type="MSShapeGroup" fill="#45AAF7" d="M47.6,70.2h-1c-2.9,0-4.5-3.3-5.3-5.9
		c-0.5-0.2-1-0.4-1.6-0.6c-1.1,0.7-3,1.7-4.8,1.7c-1.2,0-2.2-0.4-3-1.2l-0.8-0.7c0,0-0.1-0.1-0.1-0.1c-2.1-2.1-0.8-5.5,0.6-7.9
		c-0.3-0.5-0.5-1.1-0.7-1.7c-2.6-0.8-5.9-2.3-5.9-5.3v-1c0-2.5,2.2-4.4,5.9-5.3c0.2-0.5,0.4-1.1,0.7-1.6c-1.4-2.4-2.7-5.8-0.6-7.9
		c0,0,0.1-0.1,0.1-0.1l0.9-0.8c0.8-0.7,1.8-1.1,3-1.1c1.7,0,3.5,0.9,4.8,1.7c0.6-0.3,1.1-0.5,1.7-0.7c0.8-2.5,2.4-5.8,5.2-5.8h1
		c2.5,0,4.4,2.1,5.3,5.8c0.6,0.2,1.2,0.4,1.7,0.7c1.4-0.8,3.3-1.6,4.9-1.6c1.4,0,2.3,0.6,2.8,1.1l0.9,1c1.7,1.7,1.6,4.5-0.5,7.8
		c0.3,0.5,0.5,1.1,0.7,1.6c2.1,0.5,5.8,1.9,5.8,5.3v1c0,2.9-3.2,4.4-5.8,5.2c-0.2,0.6-0.4,1.1-0.7,1.7c1.6,2.5,2.5,5.7,0.4,7.8l-1,1
		c-0.5,0.5-1.4,1.1-2.8,1.1c-1.7,0-3.5-0.9-4.9-1.6c-0.5,0.2-1,0.5-1.6,0.6C52.5,66.4,51.1,70.2,47.6,70.2L47.6,70.2z M46.8,66.2
		h0.9c0.4,0,1.1-1.2,1.4-2.7c0-0.1-0.1-0.3-0.1-0.4c-0.1-1,0.5-1.9,1.5-2.2c1.1-0.3,2.2-0.7,3.2-1.3c0.7-0.4,1.5-0.3,2.1,0.1
		c1.4,0.9,2.9,1.6,3.7,1.6c0,0,0,0,0,0l0.9-0.9c0.3-0.3-0.4-2.1-1.5-3.5c-0.5-0.6-0.6-1.5-0.2-2.2c0.6-1,1-2,1.3-3
		c0.2-0.7,0.7-1.2,1.4-1.4c2.1-0.5,3.5-1.3,3.8-1.8v-0.9c0-0.5-1.7-1.3-3.6-1.6c-0.8-0.1-1.4-0.7-1.7-1.4c-0.3-1-0.7-2.1-1.3-3
		c-0.4-0.7-0.3-1.5,0.1-2.2c1.4-1.9,1.8-3.4,1.6-3.6l-0.8-0.9c0,0,0,0,0,0c-0.8,0-2.3,0.7-3.8,1.6c-0.6,0.4-1.4,0.4-2.1,0.1
		c-1-0.6-2-1-3.1-1.3c-0.8-0.2-1.3-0.8-1.5-1.6c-0.4-2.4-1.3-3.7-1.6-3.7h-0.9c-0.4,0.3-1.2,1.7-1.8,3.9c-0.2,0.7-0.7,1.2-1.4,1.4
		c-1,0.3-2.1,0.7-3,1.3c-0.7,0.4-1.5,0.3-2.2-0.1c-1.3-0.9-2.7-1.6-3.5-1.6c0,0-0.2,0-0.2,0c0,0-0.1,0.1-0.1,0.1l-0.7,0.6
		c0,0.6,0.5,2.1,1.7,3.9c0.4,0.6,0.4,1.4,0.1,2.1c-0.5,1-0.9,2-1.2,3c-0.2,0.8-0.8,1.3-1.6,1.4c-2.4,0.4-3.8,1.3-3.8,1.6v0.9
		c0.3,0.4,1.8,1.3,3.9,1.8c0.7,0.2,1.3,0.7,1.5,1.4c0.3,1,0.7,2,1.2,2.9c0.4,0.6,0.3,1.4-0.1,2.1c-1.2,1.8-1.7,3.4-1.6,4l0.7,0.6
		c0,0,0.1,0.1,0.1,0.1c0,0,0.1,0.1,0.3,0.1c0.7,0,1.8-0.5,2.6-1c0.1-0.1,0.2-0.3,0.3-0.4c0.6-0.8,1.7-1,2.6-0.5c1,0.6,2.1,1,3.2,1.3
		c0.7,0.2,1.2,0.8,1.4,1.5C45.5,64.4,46.3,65.9,46.8,66.2L46.8,66.2z M47.1,58.4c-5.6,0-10.2-4.6-10.2-10.2
		c0-5.6,4.6-10.2,10.2-10.2c5.6,0,10.2,4.6,10.2,10.2C57.4,53.8,52.8,58.4,47.1,58.4L47.1,58.4z M47.1,41.9c-3.4,0-6.2,2.8-6.2,6.2
		c0,3.4,2.8,6.2,6.2,6.2c3.4,0,6.2-2.8,6.2-6.2C53.4,44.7,50.6,41.9,47.1,41.9L47.1,41.9z"/>
</g>
</svg>
