<?xml version="1.0" encoding="utf-8"?>
<!-- Generator: Adobe Illustrator 18.0.0, SVG Export Plug-In . SVG Version: 6.00 Build 0)  -->
<!DOCTYPE svg PUBLIC "-//W3C//DTD SVG 1.1//EN" "http://www.w3.org/Graphics/SVG/1.1/DTD/svg11.dtd">
<svg version="1.1" id="Layer_1" xmlns:sketch="http://www.bohemiancoding.com/sketch/ns"
	 xmlns="http://www.w3.org/2000/svg" xmlns:xlink="http://www.w3.org/1999/xlink" x="0px" y="0px" viewBox="14 12 83.5 83.5"
	 enable-background="new 14 12 83.5 83.5" xml:space="preserve">
<title>Imported Layers 2</title>
<desc>Created with Sketch.</desc>
<g id="Page-1" sketch:type="MSPage">
	<path id="Imported-Layers-2" sketch:type="MSShapeGroup" fill="none" stroke="#F65445" stroke-width="4" d="M87.2,85.2
		c-11.1,11.1-51.7,11.1-62.9,0s-11.1-51.7,0-62.9c11.1-11.1,51.7-11.1,62.9,0C98.3,33.4,98.3,74.1,87.2,85.2"/>
	<g id="Oval-40-_x2B_-Line-12-_x2B_-Line-13" transform="translate(44.000000, 34.000000)" sketch:type="MSLayerGroup">
		
			<path id="Oval-40" sketch:type="MSShapeGroup" fill="none" stroke="#F65445" stroke-width="4" stroke-linecap="round" stroke-linejoin="round" d="
			M7.2,27.4h8.2c0-4,6.8-7.7,7.1-16.2C22.7,5,17.4,0,11.2,0S0,5,0,11.2C0,19.4,7.2,23.3,7.2,27.4z"/>
		<path id="Line-12" sketch:type="MSShapeGroup" fill="none" stroke="#F65445" stroke-width="4" stroke-linecap="round" d="
			M15.5,39.2H7.4"/>
		<path id="Line-13" sketch:type="MSShapeGroup" fill="none" stroke="#F65445" stroke-width="4" stroke-linecap="round" d="
			M15.5,33.2H7.4"/>
	</g>
	<g id="Oval-40-_x2B_-Line-12-_x2B_-Line-14" transform="translate(44.000000, 34.000000)" sketch:type="MSLayerGroup">
		
			<path id="Oval-40_1_" sketch:type="MSShapeGroup" fill="none" stroke="#F65445" stroke-width="4" stroke-linecap="round" stroke-linejoin="round" d="
			M7.2,27.4h8.2c0-4,6.8-7.7,7.1-16.2C22.7,5,17.4,0,11.2,0S0,5,0,11.2C0,19.4,7.2,23.3,7.2,27.4z"/>
		<path id="Line-12_1_" sketch:type="MSShapeGroup" fill="none" stroke="#F65445" stroke-width="4" stroke-linecap="round" d="
			M15.5,39.2H7.4"/>
		<path id="Line-13_1_" sketch:type="MSShapeGroup" fill="none" stroke="#F65445" stroke-width="4" stroke-linecap="round" d="
			M15.5,33.2H7.4"/>
	</g>
</g>
</svg>
