<?xml version="1.0" encoding="utf-8"?>
<!-- Generator: Adobe Illustrator 18.0.0, SVG Export Plug-In . SVG Version: 6.00 Build 0)  -->
<!DOCTYPE svg PUBLIC "-//W3C//DTD SVG 1.1//EN" "http://www.w3.org/Graphics/SVG/1.1/DTD/svg11.dtd">
<svg version="1.1" id="Layer_1" xmlns:sketch="http://www.bohemiancoding.com/sketch/ns"
	 xmlns="http://www.w3.org/2000/svg" xmlns:xlink="http://www.w3.org/1999/xlink" x="0px" y="0px" viewBox="8.5 13.2 80 80"
	 enable-background="new 8.5 13.2 80 80" xml:space="preserve">
<title>Imported Layers</title>
<desc>Created with Sketch.</desc>
<g id="Page-1" sketch:type="MSPage">
	<g id="Imported-Layers" transform="translate(9.000000, 13.000000)" sketch:type="MSLayerGroup">
		<path id="Fill-1" sketch:type="MSShapeGroup" fill="#F7A845" d="M39.5,4.2c12.9,0,24.5,2.9,28.8,7.2c4.3,4.3,7.2,15.9,7.2,28.8
			c0,12.9-2.9,24.5-7.2,28.8c-4.3,4.3-15.9,7.2-28.8,7.2c-12.9,0-24.5-2.9-28.8-7.2c-4.3-4.3-7.2-15.9-7.2-28.8
			c0-12.9,2.9-24.5,7.2-28.8C15.1,7.1,26.6,4.2,39.5,4.2 M39.5,0.2c-13,0-26,2.8-31.6,8.4c-11.2,11.2-11.2,52.1,0,63.2
			c5.6,5.6,18.6,8.4,31.6,8.4c13,0,26-2.8,31.6-8.4c11.2-11.2,11.2-52.1,0-63.2C65.6,3,52.5,0.2,39.5,0.2"/>
		<path id="Stroke-2" sketch:type="MSShapeGroup" fill="none" stroke="#F7A845" stroke-width="4" stroke-linejoin="round" d="
			M33.8,59.5c-6.8,0-12.3-5.5-12.3-12.3"/>
		
			<path id="Stroke-3" sketch:type="MSShapeGroup" fill="none" stroke="#F7A845" stroke-width="4" stroke-linecap="round" stroke-linejoin="round" d="
			M21.5,47.2h36.1L53,59.5H33.8 M39.5,47.2V21.8"/>
		<path id="Stroke-4" sketch:type="MSShapeGroup" fill="none" stroke="#F7A845" stroke-width="4" stroke-linejoin="round" d="
			M39.6,21.8c10,0,18.1,8.1,18.1,18.1"/>
		
			<path id="Stroke-5" sketch:type="MSShapeGroup" fill="none" stroke="#F7A845" stroke-width="4" stroke-linecap="round" stroke-linejoin="round" d="
			M57.6,39.9H39.6"/>
		<path id="Stroke-6" sketch:type="MSShapeGroup" fill="none" stroke="#F7A845" stroke-width="4" stroke-linejoin="round" d="
			M39.6,28.3c-6.4,0-11.5,5.2-11.5,11.5"/>
		
			<path id="Stroke-7" sketch:type="MSShapeGroup" fill="none" stroke="#F7A845" stroke-width="4" stroke-linecap="round" stroke-linejoin="round" d="
			M28,39.9h11.5"/>
	</g>
</g>
</svg>
