<?xml version="1.0" encoding="UTF-8" standalone="no"?>
<svg width="52px" height="52px" viewBox="0 0 52 52" version="1.1" xmlns="http://www.w3.org/2000/svg" xmlns:xlink="http://www.w3.org/1999/xlink" xmlns:sketch="http://www.bohemiancoding.com/sketch/ns">
    <!-- Generator: Sketch 3.0.4 (8054) - http://www.bohemiancoding.com/sketch -->
    <title>Imported Layers 5 + Imported Layers</title>
    <desc>Created with Sketch.</desc>
    <defs></defs>
    <g id="Home" stroke="none" stroke-width="1" fill="none" fill-rule="evenodd" sketch:type="MSPage">
        <g id="Homepage" sketch:type="MSArtboardGroup" transform="translate(-127.000000, -1861.000000)">
            <g id="Imported-Layers-5-+-Imported-Layers" sketch:type="MSLayerGroup" transform="translate(129.000000, 1863.000000)" stroke="#F65445" stroke-width="4">
                <path d="M43.0798336,43.0801177 C36.412378,49.7475733 12.0303662,49.7475733 5.36291056,43.0801177 C-1.30454506,36.412662 -1.30454506,12.0306502 5.36291056,5.36291056 C12.0303662,-1.30454506 36.412378,-1.30454506 43.0798336,5.36291056 C49.7475733,12.0306502 49.7475733,36.412662 43.0798336,43.0801177" id="Imported-Layers-5" sketch:type="MSShapeGroup"></path>
            </g>
            <path d="M162.378824,1895.10735 L154.66,1887.38765 L154.66,1884.09647 L159.382353,1888.81794 L161.253824,1886.94647 L154.66,1880.35353 L154.66,1878.06647 L157.120882,1880.52824 L158.992353,1878.65588 L153.336471,1873 L147.680588,1878.65588 L149.552059,1880.52824 L152.012941,1878.06647 L152.012941,1880.35353 L145.419118,1886.94647 L147.290588,1888.81794 L152.012941,1884.09647 L152.012941,1887.38765 L144.294118,1895.10735 L146.165588,1896.97882 L152.012941,1891.13147 L152.012941,1901.395 L154.66,1901.395 L154.66,1891.13147 L160.507353,1896.97882 L162.378824,1895.10735" id="Imported-Layers" fill="#FFFFFF" sketch:type="MSShapeGroup"></path>
        </g>
    </g>
</svg>