<?xml version="1.0" encoding="UTF-8" standalone="no"?>
<svg width="34px" height="27px" viewBox="0 0 34 27" version="1.1" xmlns="http://www.w3.org/2000/svg" xmlns:xlink="http://www.w3.org/1999/xlink" xmlns:sketch="http://www.bohemiancoding.com/sketch/ns">
    <!-- Generator: Sketch 3.0.4 (8054) - http://www.bohemiancoding.com/sketch -->
    <title>Slice 2</title>
    <desc>Created with Sketch.</desc>
    <defs></defs>
    <g id="Page-1" stroke="none" stroke-width="1" fill="none" fill-rule="evenodd" sketch:type="MSPage">
        <path d="M22.2063195,0.00160416771 C24.8007636,-0.0443061684 26.1811343,0.900936641 27.5002913,2.10327733 C28.6199934,2.00737574 30.074841,1.38146483 30.9318339,0.946846977 C31.2093364,0.794322638 31.487349,0.642308414 31.7648515,0.490804305 C31.2756513,1.8135321 30.6119919,2.84855512 29.5917622,3.6346421 C29.3652712,3.80910138 29.1403106,4.04477444 28.8566867,4.15597947 L28.8566867,4.17230315 C30.3100039,4.15750982 31.5087738,3.50150213 32.6473501,3.14595208 L32.6473501,3.16227575 C32.0494955,4.11312983 31.2399433,5.07724688 30.3763188,5.76896262 C30.0274003,6.04595498 29.6789918,6.32243722 29.3305834,6.59942958 C29.3494577,8.13844607 29.3076282,9.60706672 29.0199235,10.9002078 C27.3472569,18.4187906 22.914869,23.5224896 15.8987494,25.7088418 C13.3792922,26.4939086 9.30806559,26.8168113 6.42183579,26.1000999 C4.99045354,25.7445499 3.6973124,25.3435996 2.48374918,24.8130802 C1.80988747,24.5182338 1.1855069,24.199412 0.588162417,23.8357001 C0.392278316,23.7158231 0.195884101,23.5964562 0,23.4770894 C0.650906543,23.4964737 1.41301812,23.6760342 2.14044189,23.5587077 C2.79900016,23.4520937 3.44480555,23.4801501 4.05235234,23.3470101 C5.56739343,23.0144152 6.91307639,22.5746962 8.07205732,21.8967536 C8.63369377,21.5682396 9.48660579,21.1820827 9.88602571,20.7076759 C9.1330962,20.721449 8.45107265,20.5464796 7.8924969,20.3490651 C5.72552903,19.584403 4.46452513,18.1775062 3.64375034,16.0646105 C4.30026815,16.1365367 6.191774,16.3074252 6.63404357,15.9345313 C5.80765752,15.8886209 5.01289859,15.4101332 4.44463065,15.0545832 C2.70156822,13.9639576 1.28038826,12.1346858 1.29110067,9.32038217 C1.51963213,9.42903663 1.74867369,9.53718098 1.97720514,9.64583544 C2.41488368,9.83049702 2.86021394,9.9294593 3.38257154,10.0370935 C3.60294116,10.0824938 4.0441905,10.212573 4.29771758,10.1182018 L4.26456011,10.1182018 C3.9273742,9.72592347 3.37798051,9.46423456 3.03926425,9.04338981 C1.92109251,7.65332686 0.873316616,5.51441531 1.5359558,2.96690177 C1.7042937,2.32058626 1.97057365,1.74976774 2.25521773,1.22332922 C2.26593015,1.22894049 2.27664256,1.23455175 2.28786508,1.2396529 C2.41794437,1.51256434 2.70819972,1.71252936 2.89235118,1.9405507 C3.46316969,2.64807999 4.16763829,3.28470332 4.88587999,3.84633976 C7.33188068,5.75927043 9.53404647,6.93457504 13.072203,7.80534108 C13.9694951,8.02571069 15.0065585,8.19455871 16.0788199,8.19608905 C15.7773421,7.31920163 15.8742639,5.90057225 16.1114673,5.05174114 C16.7072814,2.91793074 18.002463,1.37993448 19.9021307,0.55558889 C20.356643,0.35868456 20.8601264,0.214832173 21.3891155,0.0995462181 C21.6615168,0.066898868 21.9339181,0.0342515178 22.2063195,0.00160416771" id="Imported-Layers-4" fill="#38C1FA" sketch:type="MSShapeGroup"></path>
    </g>
</svg>