<?xml version="1.0" encoding="UTF-8" standalone="no"?>
<svg width="52px" height="52px" viewBox="0 0 52 52" version="1.1" xmlns="http://www.w3.org/2000/svg" xmlns:xlink="http://www.w3.org/1999/xlink" xmlns:sketch="http://www.bohemiancoding.com/sketch/ns">
    <!-- Generator: Sketch 3.0.4 (8054) - http://www.bohemiancoding.com/sketch -->
    <title>Imported Layers 5 + Imported Layers</title>
    <desc>Created with Sketch.</desc>
    <defs></defs>
    <g id="Home" stroke="none" stroke-width="1" fill="none" fill-rule="evenodd" sketch:type="MSPage">
        <g id="Homepage" sketch:type="MSArtboardGroup" transform="translate(-1221.000000, -1862.000000)">
            <g id="Imported-Layers-6-+-Imported-Layers-5" sketch:type="MSLayerGroup" transform="translate(1223.000000, 1864.000000)">
                <path d="M42.7175148,42.7177988 C36.0500592,49.3852544 11.6680473,49.3852544 5.00059172,42.7177988 C-1.66686391,36.0503432 -1.66686391,11.6683314 5.00059172,5.00059172 C11.6680473,-1.66686391 36.0500592,-1.66686391 42.7175148,5.00059172 C49.3852544,11.6683314 49.3852544,36.0503432 42.7175148,42.7177988" id="Imported-Layers-6" stroke="#3EE39C" stroke-width="4" sketch:type="MSShapeGroup"></path>
                <path d="M35.5488889,17.0648889 C35.5471111,17.0542222 35.5417778,17.0453333 35.54,17.0346667 C35.5222222,16.96 35.5017778,16.8862222 35.4715556,16.8151111 C35.4368889,16.7333333 35.3942222,16.656 35.3444444,16.5831111 C35.3435556,16.5822222 35.3426667,16.5804444 35.3417778,16.5786667 C35.3266667,16.5564444 35.3071111,16.5395556 35.2911111,16.5182222 C35.2546667,16.472 35.2182222,16.4248889 35.1764444,16.3831111 C35.1462222,16.3537778 35.1133333,16.3306667 35.0813333,16.3048889 C35.0457778,16.2755556 35.0128889,16.2453333 34.9746667,16.2204444 C34.9382222,16.1964444 34.8991111,16.1786667 34.8617778,16.1591111 C34.8226667,16.1386667 34.7862222,16.1164444 34.7462222,16.0995556 C34.7035556,16.0826667 34.6591111,16.072 34.6146667,16.0595556 C34.5755556,16.048 34.5382222,16.0337778 34.4982222,16.0257778 C34.4324444,16.0133333 34.3648889,16.008 34.2973333,16.0053333 C34.2786667,16.0044444 34.2608889,16 34.2422222,16 L34.2351111,16 L34.2288889,16 L14.7222222,16 C13.9862222,16 13.3888889,16.5964444 13.3888889,17.3333333 L13.3888889,30.8017778 C13.3888889,31.5377778 13.9862222,32.1351111 14.7222222,32.1351111 L34.2422222,32.1351111 C34.9791111,32.1351111 35.5755556,31.5377778 35.5755556,30.8017778 L35.5755556,17.3333333 L35.5755556,17.3288889 C35.5755556,17.2408889 35.5666667,17.152 35.5488889,17.0648889 L35.5488889,17.0648889 Z M24.4973333,22.4053333 L19.2662222,18.6666667 L29.9435556,18.6666667 L24.4973333,22.4053333 L24.4973333,22.4053333 Z M16.0555556,29.4684444 L16.0555556,19.6497778 L23.7071111,25.1173333 C23.7266667,25.1315556 23.748,25.1351111 23.7675556,25.1475556 C23.8466667,25.1982222 23.9284444,25.2391111 24.0155556,25.272 C24.0511111,25.2853333 24.0848889,25.3004444 24.1213333,25.3111111 C24.2351111,25.3431111 24.3533333,25.3635556 24.4724444,25.3653333 C24.4751111,25.3653333 24.4777778,25.3662222 24.4813333,25.3662222 L24.4822222,25.3662222 L24.484,25.3662222 C24.4866667,25.3662222 24.4902222,25.3653333 24.4937778,25.3653333 C24.6093333,25.3635556 24.7231111,25.3448889 24.8342222,25.3137778 C24.8706667,25.3048889 24.9035556,25.2888889 24.9391111,25.2764444 C25.0217778,25.2462222 25.1008889,25.208 25.1764444,25.1617778 C25.196,25.1493333 25.2182222,25.1457778 25.2368889,25.1324444 L32.9088889,19.8657778 L32.9088889,29.4684444 L16.0555556,29.4684444 L16.0555556,29.4684444 Z" id="Imported-Layers" fill="#FFFFFF" sketch:type="MSShapeGroup"></path>
            </g>
        </g>
    </g>
</svg>