<?xml version="1.0" encoding="UTF-8" standalone="no"?>
<svg width="80px" height="80px" viewBox="0 0 80 80" version="1.1" xmlns="http://www.w3.org/2000/svg" xmlns:xlink="http://www.w3.org/1999/xlink" xmlns:sketch="http://www.bohemiancoding.com/sketch/ns">
    <!-- Generator: Sketch 3.0.4 (8054) - http://www.bohemiancoding.com/sketch -->
    <title>Slice 2</title>
    <desc>Created with Sketch.</desc>
    <defs></defs>
    <g id="Page-1" stroke="none" stroke-width="1" fill="none" fill-rule="evenodd" sketch:type="MSPage">
        <path d="M71.195858,71.1963314 C60.083432,82.3087574 19.4467456,82.3087574 8.33431953,71.1963314 C-2.77810651,60.0839053 -2.77810651,19.4472189 8.33431953,8.33431953 C19.4467456,-2.77810651 60.083432,-2.77810651 71.195858,8.33431953 C82.3087574,19.4472189 82.3087574,60.0839053 71.195858,71.1963314" id="Imported-Layers-2" stroke="#45AAF6" stroke-width="4" sketch:type="MSShapeGroup"></path>
        <path d="M39.648,61.241 L38.662,61.241 C35.742,61.241 34.176,57.937 33.399,55.361 C32.869,55.172 32.349,54.959 31.839,54.718 C30.72,55.428 28.855,56.403 27.039,56.403 C25.852,56.403 24.803,56 24,55.236 L23.162,54.538 C23.115,54.499 23.07,54.458 23.028,54.415 C20.95,52.338 22.253,48.897 23.591,46.522 C23.326,45.973 23.093,45.413 22.89,44.844 C20.31,44.067 17,42.5 17,39.579 L17,38.593 C17,36.107 19.176,34.18 22.89,33.31 C23.082,32.77 23.303,32.238 23.551,31.714 C22.179,29.35 20.838,25.923 22.931,23.831 C22.971,23.791 23.013,23.752 23.057,23.715 L23.949,22.963 C24.734,22.214 25.763,21.82 26.932,21.82 C28.661,21.82 30.442,22.686 31.728,23.496 C32.285,23.228 32.855,22.991 33.432,22.786 C34.22,20.25 35.79,17 38.662,17 L39.648,17 C42.136,17 44.015,19.088 44.904,22.78 C45.487,22.986 46.062,23.223 46.624,23.494 C47.989,22.713 49.881,21.852 51.571,21.852 C52.986,21.852 53.869,22.439 54.361,22.93 L55.296,23.916 C57.035,25.656 56.85,28.456 54.792,31.677 C55.043,32.202 55.266,32.736 55.46,33.278 C57.58,33.785 61.241,35.159 61.241,38.593 L61.241,39.579 C61.241,42.441 58.013,44.009 55.489,44.797 C55.289,45.365 55.058,45.923 54.796,46.472 C56.421,48.966 57.315,52.163 55.212,54.266 L54.214,55.264 C53.723,55.756 52.841,56.342 51.436,56.342 C49.76,56.342 47.898,55.481 46.553,54.699 C46.04,54.941 45.518,55.157 44.986,55.347 C44.504,57.404 43.136,61.241 39.648,61.241 L39.648,61.241 Z M38.767,57.241 L39.648,57.241 C40.04,57.241 40.714,55.998 41.074,54.523 C41.028,54.387 40.995,54.244 40.979,54.095 C40.869,53.104 41.507,52.184 42.473,51.938 C43.581,51.655 44.656,51.224 45.667,50.657 C46.322,50.29 47.128,50.32 47.754,50.736 C49.174,51.682 50.688,52.342 51.436,52.342 C51.453,52.342 51.468,52.342 51.481,52.341 L52.384,51.438 C52.703,51.119 52.023,49.307 50.891,47.892 C50.378,47.251 50.308,46.361 50.715,45.649 C51.267,44.683 51.692,43.667 51.981,42.632 C52.172,41.94 52.72,41.405 53.415,41.228 C55.525,40.693 56.952,39.888 57.241,39.473 L57.241,38.593 C57.241,38.117 55.493,37.256 53.637,36.996 C52.847,36.885 52.198,36.316 51.986,35.547 C51.699,34.506 51.275,33.49 50.725,32.524 C50.331,31.834 50.384,30.977 50.857,30.34 C52.3,28.401 52.617,26.894 52.429,26.706 L51.621,25.853 C51.607,25.853 51.591,25.852 51.571,25.852 C50.804,25.852 49.251,26.515 47.794,27.464 C47.169,27.872 46.368,27.898 45.717,27.529 C44.74,26.977 43.712,26.552 42.658,26.267 C41.904,26.063 41.338,25.438 41.208,24.667 C40.802,22.248 39.93,21 39.648,21 L38.768,21 C38.35,21.291 37.541,22.728 37.004,24.855 C36.828,25.551 36.293,26.099 35.603,26.292 C34.564,26.583 33.549,27.008 32.587,27.56 C31.898,27.955 31.041,27.903 30.401,27.431 C29.122,26.482 27.695,25.82 26.932,25.82 C26.889,25.82 26.745,25.823 26.706,25.861 C26.666,25.901 26.624,25.94 26.58,25.976 L25.848,26.593 C25.813,27.145 26.345,28.742 27.519,30.527 C27.93,31.151 27.958,31.952 27.592,32.604 C27.058,33.557 26.646,34.556 26.367,35.571 C26.16,36.329 25.528,36.895 24.752,37.019 C22.315,37.406 21,38.309 21,38.593 L21,39.474 C21.296,39.897 22.796,40.736 24.937,41.256 C25.639,41.427 26.194,41.963 26.39,42.66 C26.673,43.671 27.088,44.662 27.622,45.605 C27.987,46.249 27.966,47.042 27.569,47.666 C26.41,49.482 25.895,51.095 25.94,51.645 L26.618,52.211 C26.665,52.25 26.71,52.291 26.753,52.334 C26.775,52.356 26.822,52.403 27.039,52.403 C27.769,52.403 28.82,51.881 29.592,51.406 C29.659,51.258 29.745,51.117 29.851,50.985 C30.473,50.207 31.574,50.005 32.431,50.511 C33.422,51.097 34.483,51.551 35.584,51.86 C36.279,52.055 36.815,52.611 36.986,53.312 C37.506,55.448 38.345,56.946 38.767,57.241 L38.767,57.241 Z M39.126,49.366 C33.48,49.366 28.886,44.772 28.886,39.125 C28.886,33.48 33.48,28.886 39.126,28.886 C44.773,28.886 49.366,33.48 49.366,39.125 C49.366,44.772 44.773,49.366 39.126,49.366 L39.126,49.366 Z M39.126,32.886 C35.686,32.886 32.886,35.685 32.886,39.125 C32.886,42.566 35.686,45.366 39.126,45.366 C42.566,45.366 45.366,42.566 45.366,39.125 C45.366,35.685 42.566,32.886 39.126,32.886 L39.126,32.886 Z" id="Imported-Layers" fill="#45AAF7" sketch:type="MSShapeGroup"></path>
    </g>
</svg>