<?xml version="1.0" encoding="UTF-8" standalone="no"?>
<svg width="80px" height="80px" viewBox="0 0 80 80" version="1.1" xmlns="http://www.w3.org/2000/svg" xmlns:xlink="http://www.w3.org/1999/xlink" xmlns:sketch="http://www.bohemiancoding.com/sketch/ns">
    <!-- Generator: Sketch 3.0.4 (8054) - http://www.bohemiancoding.com/sketch -->
    <title>Slice 2</title>
    <desc>Created with Sketch.</desc>
    <defs></defs>
    <g id="Page-1" stroke="none" stroke-width="1" fill="none" fill-rule="evenodd" sketch:type="MSPage">
        <path d="M71.195858,71.1963314 C60.083432,82.3087574 19.4467456,82.3087574 8.33431953,71.1963314 C-2.77810651,60.0839053 -2.77810651,19.4472189 8.33431953,8.33431953 C19.4467456,-2.77810651 60.083432,-2.77810651 71.195858,8.33431953 C82.3087574,19.4472189 82.3087574,60.0839053 71.195858,71.1963314" id="Imported-Layers-2" stroke="#F65445" stroke-width="4" sketch:type="MSShapeGroup"></path>
        <g id="Oval-40-+-Line-12-+-Line-13" sketch:type="MSLayerGroup" transform="translate(28.000000, 20.000000)" stroke="#F65445" stroke-width="4" stroke-linecap="round">
            <path d="M7.15921796,27.4044978 L15.3665431,27.4044978 C15.3665431,23.3755146 22.1795517,19.7261014 22.4545455,11.2272727 C22.6550286,5.03123309 17.4279242,0 11.2272727,0 C5.02662122,0 7.529581e-07,5.02662122 0,11.2272727 C-9.86984493e-07,19.3551445 7.15921796,23.3309571 7.15921796,27.4044978 Z" id="Oval-40" stroke-linejoin="round" sketch:type="MSShapeGroup"></path>
            <path d="M15.5027846,39.1818182 L7.43158237,39.1818182" id="Line-12" sketch:type="MSShapeGroup"></path>
            <path d="M15.5027846,33.1818182 L7.43158237,33.1818182" id="Line-13" sketch:type="MSShapeGroup"></path>
        </g>
        <g id="Oval-40-+-Line-12-+-Line-14" sketch:type="MSLayerGroup" transform="translate(28.000000, 20.000000)" stroke="#F65445" stroke-width="4" stroke-linecap="round">
            <path d="M7.15921796,27.4044978 L15.3665431,27.4044978 C15.3665431,23.3755146 22.1795517,19.7261014 22.4545455,11.2272727 C22.6550286,5.03123309 17.4279242,0 11.2272727,0 C5.02662122,0 7.529581e-07,5.02662122 0,11.2272727 C-9.86984493e-07,19.3551445 7.15921796,23.3309571 7.15921796,27.4044978 Z" id="Oval-40" stroke-linejoin="round" sketch:type="MSShapeGroup"></path>
            <path d="M15.5027846,39.1818182 L7.43158237,39.1818182" id="Line-12" sketch:type="MSShapeGroup"></path>
            <path d="M15.5027846,33.1818182 L7.43158237,33.1818182" id="Line-13" sketch:type="MSShapeGroup"></path>
        </g>
    </g>
</svg>