<?xml version="1.0" encoding="UTF-8" standalone="no"?>
<svg width="52px" height="52px" viewBox="0 0 52 52" version="1.1" xmlns="http://www.w3.org/2000/svg" xmlns:xlink="http://www.w3.org/1999/xlink" xmlns:sketch="http://www.bohemiancoding.com/sketch/ns">
    <!-- Generator: Sketch 3.0.4 (8054) - http://www.bohemiancoding.com/sketch -->
    <title>Imported Layers 5 + Imported Layers</title>
    <desc>Created with Sketch.</desc>
    <defs></defs>
    <g id="Home" stroke="none" stroke-width="1" fill="none" fill-rule="evenodd" sketch:type="MSPage">
        <g id="Homepage" sketch:type="MSArtboardGroup" transform="translate(-1163.000000, -1862.000000)">
            <g id="Imported-Layers-6-+-Imported-Layers-5" sketch:type="MSLayerGroup" transform="translate(1165.000000, 1864.000000)">
                <path d="M42.7175148,42.7177988 C36.0500592,49.3852544 11.6680473,49.3852544 5.00059172,42.7177988 C-1.66686391,36.0503432 -1.66686391,11.6683314 5.00059172,5.00059172 C11.6680473,-1.66686391 36.0500592,-1.66686391 42.7175148,5.00059172 C49.3852544,11.6683314 49.3852544,36.0503432 42.7175148,42.7177988" id="Imported-Layers-6" stroke="#38C1FA" stroke-width="4" sketch:type="MSShapeGroup"></path>
                <path d="M27.5353254,15.7814735 C29.1529142,15.7528493 30.0135503,16.342191 30.8360207,17.0918286 C31.5341346,17.0320357 32.4412056,16.6417916 32.9755251,16.3708153 C33.1485429,16.2757191 33.3218787,16.180941 33.4948964,16.0864809 C33.1898891,16.9111777 32.7761095,17.5564957 32.1400148,18.0466067 C31.9988018,18.1553789 31.8585429,18.3023167 31.6817086,18.3716511 L31.6817086,18.3818286 C32.5878254,18.3726052 33.3352367,17.9635963 34.0451183,17.7419173 L34.0451183,17.7520948 C33.6723669,18.3449351 33.1676257,18.9460445 32.6291716,19.3773167 C32.4116272,19.5500164 32.1944009,19.7223981 31.9771746,19.8950978 C31.9889423,20.8546466 31.9628624,21.7703049 31.7834837,22.5765549 C30.7406065,27.2642546 27.9770932,30.4463182 23.6026701,31.8094691 C22.0318343,32.298944 19.4934985,32.5002679 17.6939867,32.0534114 C16.8015459,31.8317324 15.9952959,31.5817472 15.2386612,31.250978 C14.8185207,31.0671466 14.4292308,30.868367 14.0567973,30.6415993 C13.9346672,30.5668582 13.8122189,30.4924351 13.6900888,30.418012 C14.0959172,30.4300978 14.5710799,30.5420505 15.0246154,30.4688996 C15.4352145,30.4024277 15.8378624,30.4199203 16.2166568,30.3369099 C17.1612574,30.1295431 18.0002663,29.8553863 18.7228698,29.4327014 C19.0730399,29.2278789 19.6048151,28.987117 19.8538462,28.691333 C19.3844083,28.6999203 18.959179,28.5908301 18.6109172,28.4677457 C17.2598521,27.9909928 16.4736391,27.1138182 15.9619009,25.7964661 C16.3712278,25.8413108 17.5505473,25.9478567 17.8262944,25.7153641 C17.3110577,25.6867398 16.8155399,25.3884114 16.4612352,25.1667324 C15.3744675,24.4867472 14.4883876,23.3462295 14.4950666,21.5915623 C14.6375518,21.6593064 14.780355,21.7267324 14.9228402,21.7944765 C15.1957249,21.9096096 15.4733802,21.9713108 15.7990607,22.0384188 C15.9364571,22.066725 16.211568,22.1478271 16.3696376,22.0889883 L16.3489645,22.0889883 C16.1387352,21.8444099 15.7961982,21.6812516 15.5850148,21.4188626 C14.887855,20.5521836 14.2345858,19.2186111 14.6477293,17.6302827 C14.7526849,17.2273167 14.9187056,16.8714218 15.096176,16.5431969 C15.102855,16.5466954 15.109534,16.550194 15.1165311,16.5533744 C15.1976331,16.7235298 15.3786021,16.8482043 15.4934172,16.9903715 C15.8493121,17.4315031 16.2885355,17.8284262 16.7363462,18.1785963 C18.2613831,19.3712738 19.6343935,20.1040549 21.8403698,20.6469617 C22.3998151,20.7843582 23.0464053,20.8896318 23.7149408,20.890586 C23.5269749,20.3438626 23.5874038,19.459373 23.7352959,18.9301422 C24.1067751,17.5997502 24.9142973,16.6408374 26.0987056,16.126873 C26.3820858,16.0041067 26.6959985,15.9144173 27.0258136,15.8425386 C27.1956509,15.8221836 27.3654882,15.8018286 27.5353254,15.7814735" id="Imported-Layers-5" fill="#FFFFFF" sketch:type="MSShapeGroup"></path>
            </g>
        </g>
    </g>
</svg>