<?xml version="1.0" encoding="UTF-8" standalone="no"?>
<svg width="166px" height="26px" viewBox="0 0 166 26" version="1.1" xmlns="http://www.w3.org/2000/svg" xmlns:xlink="http://www.w3.org/1999/xlink" xmlns:sketch="http://www.bohemiancoding.com/sketch/ns">
    <!-- Generator: Sketch 3.0.4 (8054) - http://www.bohemiancoding.com/sketch -->
    <title>Slice 2</title>
    <desc>Created with Sketch.</desc>
    <defs></defs>
    <g id="Page-1" stroke="none" stroke-width="1" fill="none" fill-rule="evenodd" sketch:type="MSPage">
        <g id="Full-Logo-2" sketch:type="MSLayerGroup" transform="translate(1.000000, 1.000000)">
            <path d="M7.31590909,16.9528409 L17.1534091,7.11534091 M5.50795455,13.8079545 L13.9875,5.32840909 M10.4607955,18.7607955 L18.9619318,10.2596591 M7.31590909,7.11534091 L17.1534091,16.9528409 M10.4607955,5.30795455 L18.9619318,13.8085227 M5.50795455,10.2607955 L14.0090909,18.7613636" id="Stroke-1" stroke="#FFFFFF" stroke-width="2" stroke-linecap="round" stroke-linejoin="round" sketch:type="MSShapeGroup"></path>
            <path d="M12.2346591,1.53977273 C16.05,1.53977273 19.4409091,2.36647727 20.6715909,3.59715909 C23.43125,6.35681818 23.43125,17.7113636 20.6715909,20.4715909 C19.4409091,21.7022727 16.05,22.5289773 12.2346591,22.5289773 C8.41875,22.5289773 5.02784091,21.7022727 3.79715909,20.4715909 C1.0375,17.7113636 1.0375,6.35681818 3.79715909,3.59715909 C5.02784091,2.36647727 8.41875,1.53977273 12.2346591,1.53977273 M12.2346591,-0.164772727 C8.26534091,-0.164772727 4.29659091,0.6875 2.59204545,2.39204545 C-0.817045455,5.80113636 -0.817045455,18.2676136 2.59204545,21.6767045 C4.29659091,23.38125 8.26534091,24.2335227 12.2346591,24.2335227 C16.2034091,24.2335227 20.1721591,23.38125 21.8767045,21.6767045 C25.2857955,18.2676136 25.2857955,5.80113636 21.8767045,2.39204545 C20.1721591,0.6875 16.2034091,-0.164772727 12.2346591,-0.164772727" id="Fill-2" fill="#FFFFFF" sketch:type="MSShapeGroup"></path>
            <path d="M33.4619318,10.85 L37.3886364,10.85 L37.3886364,6.32272727 C37.3886364,5.99602273 37.4977273,5.85 37.825,5.85 L39.4068182,5.85 C39.7340909,5.85 39.8431818,5.99602273 39.8431818,6.32272727 L39.8431818,17.7403409 C39.8431818,18.0676136 39.7340909,18.2130682 39.4068182,18.2130682 L37.825,18.2130682 C37.4977273,18.2130682 37.3886364,18.0676136 37.3886364,17.7403409 L37.3886364,12.8863636 L33.4619318,12.8863636 L33.4619318,17.7403409 C33.4619318,18.0676136 33.3522727,18.2130682 33.0255682,18.2130682 L31.44375,18.2130682 C31.1164773,18.2130682 31.0073864,18.0676136 31.0073864,17.7403409 L31.0073864,6.32272727 C31.0073864,5.99602273 31.1164773,5.85 31.44375,5.85 L33.0255682,5.85 C33.3522727,5.85 33.4619318,5.99602273 33.4619318,6.32272727 L33.4619318,10.85" id="Fill-3" fill="#FFFFFF" sketch:type="MSShapeGroup"></path>
            <path d="M44.5704545,7.54090909 C44.5704545,7.85 44.4619318,7.97727273 44.1528409,7.97727273 L42.64375,7.97727273 C42.3170455,7.97727273 42.1892045,7.85 42.1892045,7.54090909 L42.1892045,5.97727273 C42.1892045,5.65 42.3170455,5.50454545 42.64375,5.50454545 L44.1528409,5.50454545 C44.4619318,5.50454545 44.5704545,5.65 44.5704545,5.97727273 L44.5704545,7.54090909 L44.5704545,7.54090909 Z M44.5704545,17.7403409 C44.5704545,18.0676136 44.4619318,18.2130682 44.1528409,18.2130682 L42.64375,18.2130682 C42.3170455,18.2130682 42.1892045,18.0676136 42.1892045,17.7403409 L42.1892045,9.61363636 C42.1892045,9.28636364 42.3170455,9.15909091 42.64375,9.15909091 L44.1528409,9.15909091 C44.4619318,9.15909091 44.5704545,9.28636364 44.5704545,9.61363636 L44.5704545,17.7403409 L44.5704545,17.7403409 Z" id="Fill-4" fill="#FFFFFF" sketch:type="MSShapeGroup"></path>
            <path d="M52.0795455,17.3403409 C51.5710227,17.7403409 50.64375,18.3579545 49.1892045,18.3579545 C47.3892045,18.3579545 46.5534091,17.3215909 46.5534091,15.7039773 L46.5534091,11.6676136 C46.5534091,10.0494318 47.3892045,9.01363636 49.1892045,9.01363636 C50.5886364,9.01363636 51.4982955,9.59545455 52.0255682,9.99545455 L52.0255682,5.97727273 C52.0255682,5.65 52.1346591,5.50454545 52.4613636,5.50454545 L53.9704545,5.50454545 C54.2795455,5.50454545 54.4068182,5.65 54.4068182,5.97727273 L54.4068182,17.7403409 C54.4068182,18.0676136 54.2795455,18.2130682 53.9704545,18.2130682 L52.5704545,18.2130682 C52.2431818,18.2130682 52.1522727,18.0676136 52.1164773,17.7403409 L52.0795455,17.3403409 L52.0795455,17.3403409 Z M48.9346591,15.3221591 C48.9346591,15.8130682 49.0801136,16.2857955 49.9346591,16.2857955 C50.825,16.2857955 51.64375,15.7403409 52.0255682,15.4494318 L52.0255682,11.9221591 C51.64375,11.6318182 50.825,11.0863636 49.9346591,11.0863636 C49.0801136,11.0863636 48.9346591,11.5590909 48.9346591,12.0318182 L48.9346591,15.3221591 L48.9346591,15.3221591 Z" id="Fill-5" fill="#FFFFFF" sketch:type="MSShapeGroup"></path>
            <path d="M61.8977273,17.3403409 C61.3886364,17.7403409 60.4613636,18.3579545 59.0073864,18.3579545 C57.2073864,18.3579545 56.3710227,17.3215909 56.3710227,15.7039773 L56.3710227,11.6676136 C56.3710227,10.0494318 57.2073864,9.01363636 59.0073864,9.01363636 C60.40625,9.01363636 61.3159091,9.59545455 61.8431818,9.99545455 L61.8431818,5.97727273 C61.8431818,5.65 61.9522727,5.50454545 62.2789773,5.50454545 L63.7886364,5.50454545 C64.0977273,5.50454545 64.2244318,5.65 64.2244318,5.97727273 L64.2244318,17.7403409 C64.2244318,18.0676136 64.0977273,18.2130682 63.7886364,18.2130682 L62.3886364,18.2130682 C62.0613636,18.2130682 61.9698864,18.0676136 61.9340909,17.7403409 L61.8977273,17.3403409 L61.8977273,17.3403409 Z M58.7522727,15.3221591 C58.7522727,15.8130682 58.8977273,16.2857955 59.7522727,16.2857955 C60.6426136,16.2857955 61.4613636,15.7403409 61.8431818,15.4494318 L61.8431818,11.9221591 C61.4613636,11.6318182 60.6426136,11.0863636 59.7522727,11.0863636 C58.8977273,11.0863636 58.7522727,11.5590909 58.7522727,12.0318182 L58.7522727,15.3221591 L58.7522727,15.3221591 Z" id="Fill-6" fill="#FFFFFF" sketch:type="MSShapeGroup"></path>
            <path d="M73.5693182,13.7948864 C73.5693182,14.0857955 73.4607955,14.2136364 73.1698864,14.2136364 L68.5159091,14.2136364 L68.5159091,15.5585227 C68.5159091,16.1948864 68.8607955,16.5585227 69.9335227,16.5585227 C71.00625,16.5585227 71.3517045,16.1948864 71.3517045,15.5585227 L71.3517045,15.4676136 C71.3517045,15.1585227 71.4789773,15.0130682 71.80625,15.0130682 L73.0789773,15.0130682 C73.3880682,15.0130682 73.5335227,15.1585227 73.5335227,15.4676136 L73.5335227,15.6676136 C73.5335227,17.3039773 72.5880682,18.3579545 69.9153409,18.3579545 C67.2431818,18.3579545 66.1886364,17.3039773 66.1886364,15.6676136 L66.1886364,11.6857955 C66.1886364,10.0681818 67.2613636,9.01363636 69.9335227,9.01363636 C72.5880682,9.01363636 73.5693182,10.0681818 73.5693182,11.6857955 L73.5693182,13.7948864 L73.5693182,13.7948864 Z M68.5159091,12.6130682 L71.3517045,12.6130682 L71.3517045,11.8130682 C71.3517045,11.1772727 70.9517045,10.8130682 69.9335227,10.8130682 C68.8977273,10.8130682 68.5159091,11.1772727 68.5159091,11.8130682 L68.5159091,12.6130682 L68.5159091,12.6130682 Z" id="Fill-7" fill="#FFFFFF" sketch:type="MSShapeGroup"></path>
            <path d="M77.2971591,9.15909091 C77.6244318,9.15909091 77.7153409,9.28636364 77.7335227,9.59545455 L77.7698864,10.03125 C78.2795455,9.61363636 79.20625,9.01363636 80.6789773,9.01363636 C82.3517045,9.01363636 83.3153409,10.03125 83.3153409,11.4494318 L83.3153409,17.7403409 C83.3153409,18.0676136 83.1875,18.2130682 82.8607955,18.2130682 L81.3880682,18.2130682 C81.0607955,18.2130682 80.9153409,18.0676136 80.9153409,17.7403409 L80.9153409,12.0494318 C80.9153409,11.3954545 80.7153409,11.0863636 79.9335227,11.0863636 C79.0244318,11.0863636 78.2068182,11.6136364 77.8244318,11.9039773 L77.8244318,17.7403409 C77.8244318,18.0676136 77.7153409,18.2130682 77.40625,18.2130682 L75.8971591,18.2130682 C75.5704545,18.2130682 75.4426136,18.0676136 75.4426136,17.7403409 L75.4426136,9.59545455 C75.4426136,9.28636364 75.5704545,9.15909091 75.8971591,9.15909091 L77.2971591,9.15909091" id="Fill-8" fill="#FFFFFF" sketch:type="MSShapeGroup"></path>
            <path d="M91.5335227,13.83125 L91.5335227,17.7403409 C91.5335227,18.0676136 91.4238636,18.2130682 91.0971591,18.2130682 L89.5153409,18.2130682 C89.1880682,18.2130682 89.0789773,18.0676136 89.0789773,17.7403409 L89.0789773,6.32272727 C89.0789773,5.99602273 89.1880682,5.85 89.5153409,5.85 L93.3335227,5.85 C96.6238636,5.85 97.7329545,7.28636364 97.7329545,8.81363636 L97.7329545,10.8681818 C97.7329545,12.3948864 96.6238636,13.83125 93.3335227,13.83125 L91.5335227,13.83125 L91.5335227,13.83125 Z M91.5335227,7.88636364 L91.5335227,11.7954545 L93.3335227,11.7954545 C94.5511364,11.7954545 95.2965909,11.3409091 95.2965909,10.45 L95.2965909,9.25 C95.2965909,8.34090909 94.5511364,7.88636364 93.3335227,7.88636364 L91.5335227,7.88636364 L91.5335227,7.88636364 Z" id="Fill-9" fill="#FFFFFF" sketch:type="MSShapeGroup"></path>
            <path d="M101.805682,7.54090909 C101.805682,7.85 101.696591,7.97727273 101.3875,7.97727273 L99.8784091,7.97727273 C99.5517045,7.97727273 99.4238636,7.85 99.4238636,7.54090909 L99.4238636,5.97727273 C99.4238636,5.65 99.5517045,5.50454545 99.8784091,5.50454545 L101.3875,5.50454545 C101.696591,5.50454545 101.805682,5.65 101.805682,5.97727273 L101.805682,7.54090909 L101.805682,7.54090909 Z M101.805682,17.7403409 C101.805682,18.0676136 101.696591,18.2130682 101.3875,18.2130682 L99.8784091,18.2130682 C99.5517045,18.2130682 99.4238636,18.0676136 99.4238636,17.7403409 L99.4238636,9.61363636 C99.4238636,9.28636364 99.5517045,9.15909091 99.8784091,9.15909091 L101.3875,9.15909091 C101.696591,9.15909091 101.805682,9.28636364 101.805682,9.61363636 L101.805682,17.7403409 L101.805682,17.7403409 Z" id="Fill-10" fill="#FFFFFF" sketch:type="MSShapeGroup"></path>
            <path d="M105.823864,9.15909091 C106.151136,9.15909091 106.242045,9.28636364 106.260795,9.59545455 L106.296591,10.03125 C106.805682,9.61363636 107.732955,9.01363636 109.205682,9.01363636 C110.878409,9.01363636 111.842045,10.03125 111.842045,11.4494318 L111.842045,17.7403409 C111.842045,18.0676136 111.714205,18.2130682 111.3875,18.2130682 L109.914773,18.2130682 C109.5875,18.2130682 109.442045,18.0676136 109.442045,17.7403409 L109.442045,12.0494318 C109.442045,11.3954545 109.242045,11.0863636 108.460227,11.0863636 C107.551136,11.0863636 106.733523,11.6136364 106.351136,11.9039773 L106.351136,17.7403409 C106.351136,18.0676136 106.242045,18.2130682 105.932955,18.2130682 L104.423864,18.2130682 C104.097159,18.2130682 103.969318,18.0676136 103.969318,17.7403409 L103.969318,9.59545455 C103.969318,9.28636364 104.097159,9.15909091 104.423864,9.15909091 L105.823864,9.15909091" id="Fill-11" fill="#FFFFFF" sketch:type="MSShapeGroup"></path>
            <path d="M121.078409,13.7948864 C121.078409,14.0857955 120.969318,14.2136364 120.678977,14.2136364 L116.024432,14.2136364 L116.024432,15.5585227 C116.024432,16.1948864 116.369886,16.5585227 117.442045,16.5585227 C118.514773,16.5585227 118.860227,16.1948864 118.860227,15.5585227 L118.860227,15.4676136 C118.860227,15.1585227 118.9875,15.0130682 119.314773,15.0130682 L120.5875,15.0130682 C120.896591,15.0130682 121.042045,15.1585227 121.042045,15.4676136 L121.042045,15.6676136 C121.042045,17.3039773 120.096591,18.3579545 117.423864,18.3579545 C114.751705,18.3579545 113.697159,17.3039773 113.697159,15.6676136 L113.697159,11.6857955 C113.697159,10.0681818 114.769886,9.01363636 117.442045,9.01363636 C120.096591,9.01363636 121.078409,10.0681818 121.078409,11.6857955 L121.078409,13.7948864 L121.078409,13.7948864 Z M116.024432,12.6130682 L118.860227,12.6130682 L118.860227,11.8130682 C118.860227,11.1772727 118.460227,10.8130682 117.442045,10.8130682 C116.40625,10.8130682 116.024432,11.1772727 116.024432,11.8130682 L116.024432,12.6130682 L116.024432,12.6130682 Z" id="Fill-12" fill="#FFFFFF" sketch:type="MSShapeGroup"></path>
            <path d="M122.969886,11.6318182 C122.969886,10.0136364 124.042614,9.01363636 126.642614,9.01363636 C129.296023,9.01363636 130.296023,10.0136364 130.296023,11.6318182 L130.296023,17.7403409 C130.296023,18.0676136 130.169318,18.2130682 129.860227,18.2130682 L128.496591,18.2130682 C128.169318,18.2130682 128.096591,18.0676136 128.060227,17.7403409 L128.023864,17.3585227 C127.497159,17.7943182 126.605682,18.3579545 125.332955,18.3579545 C123.551136,18.3579545 122.715341,17.2857955 122.715341,16.0852273 L122.715341,15.2676136 C122.715341,14.05 123.642045,12.9772727 125.442045,12.9772727 L127.951136,12.9772727 L127.951136,11.8130682 C127.951136,11.1590909 127.642045,10.7954545 126.5875,10.7954545 C125.551705,10.7954545 125.1875,11.0863636 125.1875,11.7403409 L125.1875,11.8681818 C125.1875,12.1954545 125.060227,12.3221591 124.751705,12.3221591 L123.405682,12.3221591 C123.078977,12.3221591 122.969886,12.1954545 122.969886,11.8681818 L122.969886,11.6318182 L122.969886,11.6318182 Z M127.951136,15.6857955 L127.951136,14.6494318 L125.914773,14.6494318 C125.205682,14.6494318 125.042045,14.9948864 125.042045,15.4676136 L125.042045,15.7585227 C125.042045,16.3039773 125.40625,16.4670455 125.951136,16.4670455 C126.788068,16.4670455 127.532955,15.9948864 127.951136,15.6857955 L127.951136,15.6857955 Z" id="Fill-13" fill="#FFFFFF" sketch:type="MSShapeGroup"></path>
            <path d="M134.205682,9.15909091 C134.532955,9.15909091 134.624432,9.28636364 134.642614,9.61363636 L134.678409,10.0494318 C135.188068,9.64943182 136.096591,9.01363636 137.5875,9.01363636 C139.386932,9.01363636 140.223864,10.0494318 140.223864,11.6676136 L140.223864,15.7039773 C140.223864,17.3215909 139.386932,18.3579545 137.5875,18.3579545 C136.169318,18.3579545 135.260795,17.7767045 134.732955,17.3948864 L134.732955,21.4125 C134.732955,21.7403409 134.624432,21.8670455 134.315341,21.8670455 L132.805682,21.8670455 C132.478977,21.8670455 132.351705,21.7403409 132.351705,21.4125 L132.351705,9.61363636 C132.351705,9.28636364 132.478977,9.15909091 132.805682,9.15909091 L134.205682,9.15909091 L134.205682,9.15909091 Z M137.823864,12.0318182 C137.823864,11.5590909 137.678977,11.0863636 136.842045,11.0863636 C135.914773,11.0863636 135.115341,11.6318182 134.732955,11.9221591 L134.732955,15.4494318 C135.115341,15.7403409 135.914773,16.2857955 136.842045,16.2857955 C137.678977,16.2857955 137.823864,15.8130682 137.823864,15.3221591 L137.823864,12.0318182 L137.823864,12.0318182 Z" id="Fill-14" fill="#FFFFFF" sketch:type="MSShapeGroup"></path>
            <path d="M144.023295,9.15909091 C144.351136,9.15909091 144.442045,9.28636364 144.460227,9.61363636 L144.496591,10.0494318 C145.005682,9.64943182 145.914773,9.01363636 147.405682,9.01363636 C149.205114,9.01363636 150.041477,10.0494318 150.041477,11.6676136 L150.041477,15.7039773 C150.041477,17.3215909 149.205114,18.3579545 147.405682,18.3579545 C145.986932,18.3579545 145.078409,17.7767045 144.550568,17.3948864 L144.550568,21.4125 C144.550568,21.7403409 144.442045,21.8670455 144.132955,21.8670455 L142.623864,21.8670455 C142.296591,21.8670455 142.169318,21.7403409 142.169318,21.4125 L142.169318,9.61363636 C142.169318,9.28636364 142.296591,9.15909091 142.623864,9.15909091 L144.023295,9.15909091 L144.023295,9.15909091 Z M147.642045,12.0318182 C147.642045,11.5590909 147.496591,11.0863636 146.659659,11.0863636 C145.732386,11.0863636 144.932955,11.6318182 144.550568,11.9221591 L144.550568,15.4494318 C144.932955,15.7403409 145.732386,16.2857955 146.659659,16.2857955 C147.496591,16.2857955 147.642045,15.8130682 147.642045,15.3221591 L147.642045,12.0318182 L147.642045,12.0318182 Z" id="Fill-15" fill="#FFFFFF" sketch:type="MSShapeGroup"></path>
            <path d="M154.36875,17.7403409 C154.36875,18.0676136 154.259659,18.2130682 153.950568,18.2130682 L152.441477,18.2130682 C152.114773,18.2130682 151.986932,18.0676136 151.986932,17.7403409 L151.986932,5.97727273 C151.986932,5.65 152.114773,5.50454545 152.441477,5.50454545 L153.950568,5.50454545 C154.259659,5.50454545 154.36875,5.65 154.36875,5.97727273 L154.36875,17.7403409" id="Fill-16" fill="#FFFFFF" sketch:type="MSShapeGroup"></path>
            <path d="M163.731818,13.7948864 C163.731818,14.0857955 163.623295,14.2136364 163.332386,14.2136364 L158.677841,14.2136364 L158.677841,15.5585227 C158.677841,16.1948864 159.023295,16.5585227 160.096023,16.5585227 C161.168182,16.5585227 161.514205,16.1948864 161.514205,15.5585227 L161.514205,15.4676136 C161.514205,15.1585227 161.640909,15.0130682 161.96875,15.0130682 L163.241477,15.0130682 C163.550568,15.0130682 163.695455,15.1585227 163.695455,15.4676136 L163.695455,15.6676136 C163.695455,17.3039773 162.75,18.3579545 160.077273,18.3579545 C157.405114,18.3579545 156.351136,17.3039773 156.351136,15.6676136 L156.351136,11.6857955 C156.351136,10.0681818 157.423295,9.01363636 160.096023,9.01363636 C162.75,9.01363636 163.731818,10.0681818 163.731818,11.6857955 L163.731818,13.7948864 L163.731818,13.7948864 Z M158.677841,12.6130682 L161.514205,12.6130682 L161.514205,11.8130682 C161.514205,11.1772727 161.113636,10.8130682 160.096023,10.8130682 C159.059659,10.8130682 158.677841,11.1772727 158.677841,11.8130682 L158.677841,12.6130682 L158.677841,12.6130682 Z" id="Fill-17" fill="#FFFFFF" sketch:type="MSShapeGroup"></path>
        </g>
    </g>
</svg>