<svg xmlns="http://www.w3.org/2000/svg" xmlns:xlink="http://www.w3.org/1999/xlink" xmlns:sketch="http://www.bohemiancoding.com/sketch/ns" width="166px" height="26px" viewBox="0 0 166 26" version="1.1"><style>.style0{fill:	none;fill-rule:	evenodd;}.style1{stroke-linejoin:	round;stroke:	#FFFFFF;stroke-linecap:	round;stroke-width:	2;}.style2{fill:	#FFFFFF;}</style><!-- Generator: Sketch 3.0.4 (8054) - http://www.bohemiancoding.com/sketch --><title>Slice 2</title><desc>Created with Sketch.</desc><defs/><g sketch:type="MSPage" class="style0"><g sketch:type="MSLayerGroup"><path d="M8.3 18 L18.2 8.1 M6.5 14.8 L15 6.3 M11.5 19.8 L20 11.3 M8.3 8.1 L18.2 18 M11.5 6.3 L20 14.8 M6.5 11.3 L15 19.8 " sketch:type="MSShapeGroup" class="style1"/><path d="M13.2 2.5 C17.1 2.5 20.4 3.4 21.7 4.6 C24.4 7.4 24.4 18.7 21.7 21.5 C20.4 22.7 17.1 23.5 13.2 23.5 C9.4 23.5 6 22.7 4.8 21.5 C2 18.7 2 7.4 4.8 4.6 C6 3.4 9.4 2.5 13.2 2.5 M13.2 0.8 C9.3 0.8 5.3 1.7 3.6 3.4 C0.2 6.8 0.2 19.3 3.6 22.7 C5.3 24.4 9.3 25.2 13.2 25.2 C17.2 25.2 21.2 24.4 22.9 22.7 C26.3 19.3 26.3 6.8 22.9 3.4 C21.2 1.7 17.2 0.8 13.2 0.8 " sketch:type="MSShapeGroup" class="style2"/><path d="M34.5 11.8 L38.4 11.8 L38.4 7.3 C38.4 7 38.5 6.8 38.8 6.8 L40.4 6.8 C40.7 6.8 40.8 7 40.8 7.3 L40.8 18.7 C40.8 19.1 40.7 19.2 40.4 19.2 L38.8 19.2 C38.5 19.2 38.4 19.1 38.4 18.7 L38.4 13.9 L34.5 13.9 L34.5 18.7 C34.5 19.1 34.4 19.2 34 19.2 L32.4 19.2 C32.1 19.2 32 19.1 32 18.7 L32 7.3 C32 7 32.1 6.8 32.4 6.8 L34 6.8 C34.4 6.8 34.5 7 34.5 7.3 L34.5 11.8 " sketch:type="MSShapeGroup" class="style2"/><path d="M45.6 8.5 C45.6 8.8 45.5 9 45.2 9 L43.6 9 C43.3 9 43.2 8.8 43.2 8.5 L43.2 7 C43.2 6.7 43.3 6.5 43.6 6.5 L45.2 6.5 C45.5 6.5 45.6 6.7 45.6 7 L45.6 8.5 L45.6 8.5 ZM45.6 18.7 C45.6 19.1 45.5 19.2 45.2 19.2 L43.6 19.2 C43.3 19.2 43.2 19.1 43.2 18.7 L43.2 10.6 C43.2 10.3 43.3 10.2 43.6 10.2 L45.2 10.2 C45.5 10.2 45.6 10.3 45.6 10.6 L45.6 18.7 L45.6 18.7 Z" sketch:type="MSShapeGroup" class="style2"/><path d="M53.1 18.3 C52.6 18.7 51.6 19.4 50.2 19.4 C48.4 19.4 47.6 18.3 47.6 16.7 L47.6 12.7 C47.6 11 48.4 10 50.2 10 C51.6 10 52.5 10.6 53 11 L53 7 C53 6.7 53.1 6.5 53.5 6.5 L55 6.5 C55.3 6.5 55.4 6.7 55.4 7 L55.4 18.7 C55.4 19.1 55.3 19.2 55 19.2 L53.6 19.2 C53.2 19.2 53.2 19.1 53.1 18.7 L53.1 18.3 L53.1 18.3 ZM49.9 16.3 C49.9 16.8 50.1 17.3 50.9 17.3 C51.8 17.3 52.6 16.7 53 16.4 L53 12.9 C52.6 12.6 51.8 12.1 50.9 12.1 C50.1 12.1 49.9 12.6 49.9 13 L49.9 16.3 L49.9 16.3 Z" sketch:type="MSShapeGroup" class="style2"/><path d="M62.9 18.3 C62.4 18.7 61.5 19.4 60 19.4 C58.2 19.4 57.4 18.3 57.4 16.7 L57.4 12.7 C57.4 11 58.2 10 60 10 C61.4 10 62.3 10.6 62.8 11 L62.8 7 C62.8 6.7 63 6.5 63.3 6.5 L64.8 6.5 C65.1 6.5 65.2 6.7 65.2 7 L65.2 18.7 C65.2 19.1 65.1 19.2 64.8 19.2 L63.4 19.2 C63.1 19.2 63 19.1 62.9 18.7 L62.9 18.3 L62.9 18.3 ZM59.8 16.3 C59.8 16.8 59.9 17.3 60.8 17.3 C61.6 17.3 62.5 16.7 62.8 16.4 L62.8 12.9 C62.5 12.6 61.6 12.1 60.8 12.1 C59.9 12.1 59.8 12.6 59.8 13 L59.8 16.3 L59.8 16.3 Z" sketch:type="MSShapeGroup" class="style2"/><path d="M74.6 14.8 C74.6 15.1 74.5 15.2 74.2 15.2 L69.5 15.2 L69.5 16.6 C69.5 17.2 69.9 17.6 70.9 17.6 C72 17.6 72.4 17.2 72.4 16.6 L72.4 16.5 C72.4 16.2 72.5 16 72.8 16 L74.1 16 C74.4 16 74.5 16.2 74.5 16.5 L74.5 16.7 C74.5 18.3 73.6 19.4 70.9 19.4 C68.2 19.4 67.2 18.3 67.2 16.7 L67.2 12.7 C67.2 11.1 68.3 10 70.9 10 C73.6 10 74.6 11.1 74.6 12.7 L74.6 14.8 L74.6 14.8 ZM69.5 13.6 L72.4 13.6 L72.4 12.8 C72.4 12.2 72 11.8 70.9 11.8 C69.9 11.8 69.5 12.2 69.5 12.8 L69.5 13.6 L69.5 13.6 Z" sketch:type="MSShapeGroup" class="style2"/><path d="M78.3 10.2 C78.6 10.2 78.7 10.3 78.7 10.6 L78.8 11 C79.3 10.6 80.2 10 81.7 10 C83.4 10 84.3 11 84.3 12.4 L84.3 18.7 C84.3 19.1 84.2 19.2 83.9 19.2 L82.4 19.2 C82.1 19.2 81.9 19.1 81.9 18.7 L81.9 13 C81.9 12.4 81.7 12.1 80.9 12.1 C80 12.1 79.2 12.6 78.8 12.9 L78.8 18.7 C78.8 19.1 78.7 19.2 78.4 19.2 L76.9 19.2 C76.6 19.2 76.4 19.1 76.4 18.7 L76.4 10.6 C76.4 10.3 76.6 10.2 76.9 10.2 L78.3 10.2 " sketch:type="MSShapeGroup" class="style2"/><path d="M92.5 14.8 L92.5 18.7 C92.5 19.1 92.4 19.2 92.1 19.2 L90.5 19.2 C90.2 19.2 90.1 19.1 90.1 18.7 L90.1 7.3 C90.1 7 90.2 6.8 90.5 6.8 L94.3 6.8 C97.6 6.8 98.7 8.3 98.7 9.8 L98.7 11.9 C98.7 13.4 97.6 14.8 94.3 14.8 L92.5 14.8 L92.5 14.8 ZM92.5 8.9 L92.5 12.8 L94.3 12.8 C95.6 12.8 96.3 12.3 96.3 11.4 L96.3 10.2 C96.3 9.3 95.6 8.9 94.3 8.9 L92.5 8.9 L92.5 8.9 Z" sketch:type="MSShapeGroup" class="style2"/><path d="M102.8 8.5 C102.8 8.8 102.7 9 102.4 9 L100.9 9 C100.6 9 100.4 8.8 100.4 8.5 L100.4 7 C100.4 6.7 100.6 6.5 100.9 6.5 L102.4 6.5 C102.7 6.5 102.8 6.7 102.8 7 L102.8 8.5 L102.8 8.5 ZM102.8 18.7 C102.8 19.1 102.7 19.2 102.4 19.2 L100.9 19.2 C100.6 19.2 100.4 19.1 100.4 18.7 L100.4 10.6 C100.4 10.3 100.6 10.2 100.9 10.2 L102.4 10.2 C102.7 10.2 102.8 10.3 102.8 10.6 L102.8 18.7 L102.8 18.7 Z" sketch:type="MSShapeGroup" class="style2"/><path d="M106.8 10.2 C107.2 10.2 107.2 10.3 107.3 10.6 L107.3 11 C107.8 10.6 108.7 10 110.2 10 C111.9 10 112.8 11 112.8 12.4 L112.8 18.7 C112.8 19.1 112.7 19.2 112.4 19.2 L110.9 19.2 C110.6 19.2 110.4 19.1 110.4 18.7 L110.4 13 C110.4 12.4 110.2 12.1 109.5 12.1 C108.6 12.1 107.7 12.6 107.4 12.9 L107.4 18.7 C107.4 19.1 107.2 19.2 106.9 19.2 L105.4 19.2 C105.1 19.2 105 19.1 105 18.7 L105 10.6 C105 10.3 105.1 10.2 105.4 10.2 L106.8 10.2 " sketch:type="MSShapeGroup" class="style2"/><path d="M122.1 14.8 C122.1 15.1 122 15.2 121.7 15.2 L117 15.2 L117 16.6 C117 17.2 117.4 17.6 118.4 17.6 C119.5 17.6 119.9 17.2 119.9 16.6 L119.9 16.5 C119.9 16.2 120 16 120.3 16 L121.6 16 C121.9 16 122 16.2 122 16.5 L122 16.7 C122 18.3 121.1 19.4 118.4 19.4 C115.8 19.4 114.7 18.3 114.7 16.7 L114.7 12.7 C114.7 11.1 115.8 10 118.4 10 C121.1 10 122.1 11.1 122.1 12.7 L122.1 14.8 L122.1 14.8 ZM117 13.6 L119.9 13.6 L119.9 12.8 C119.9 12.2 119.5 11.8 118.4 11.8 C117.4 11.8 117 12.2 117 12.8 L117 13.6 L117 13.6 Z" sketch:type="MSShapeGroup" class="style2"/><path d="M124 12.6 C124 11 125 10 127.6 10 C130.3 10 131.3 11 131.3 12.6 L131.3 18.7 C131.3 19.1 131.2 19.2 130.9 19.2 L129.5 19.2 C129.2 19.2 129.1 19.1 129.1 18.7 L129 18.4 C128.5 18.8 127.6 19.4 126.3 19.4 C124.6 19.4 123.7 18.3 123.7 17.1 L123.7 16.3 C123.7 15.1 124.6 14 126.4 14 L129 14 L129 12.8 C129 12.2 128.6 11.8 127.6 11.8 C126.6 11.8 126.2 12.1 126.2 12.7 L126.2 12.9 C126.2 13.2 126.1 13.3 125.8 13.3 L124.4 13.3 C124.1 13.3 124 13.2 124 12.9 L124 12.6 L124 12.6 ZM129 16.7 L129 15.6 L126.9 15.6 C126.2 15.6 126 16 126 16.5 L126 16.8 C126 17.3 126.4 17.5 127 17.5 C127.8 17.5 128.5 17 129 16.7 L129 16.7 Z" sketch:type="MSShapeGroup" class="style2"/><path d="M135.2 10.2 C135.5 10.2 135.6 10.3 135.6 10.6 L135.7 11 C136.2 10.6 137.1 10 138.6 10 C140.4 10 141.2 11 141.2 12.7 L141.2 16.7 C141.2 18.3 140.4 19.4 138.6 19.4 C137.2 19.4 136.3 18.8 135.7 18.4 L135.7 22.4 C135.7 22.7 135.6 22.9 135.3 22.9 L133.8 22.9 C133.5 22.9 133.4 22.7 133.4 22.4 L133.4 10.6 C133.4 10.3 133.5 10.2 133.8 10.2 L135.2 10.2 L135.2 10.2 ZM138.8 13 C138.8 12.6 138.7 12.1 137.8 12.1 C136.9 12.1 136.1 12.6 135.7 12.9 L135.7 16.4 C136.1 16.7 136.9 17.3 137.8 17.3 C138.7 17.3 138.8 16.8 138.8 16.3 L138.8 13 L138.8 13 Z" sketch:type="MSShapeGroup" class="style2"/><path d="M145 10.2 C145.4 10.2 145.4 10.3 145.5 10.6 L145.5 11 C146 10.6 146.9 10 148.4 10 C150.2 10 151 11 151 12.7 L151 16.7 C151 18.3 150.2 19.4 148.4 19.4 C147 19.4 146.1 18.8 145.6 18.4 L145.6 22.4 C145.6 22.7 145.4 22.9 145.1 22.9 L143.6 22.9 C143.3 22.9 143.2 22.7 143.2 22.4 L143.2 10.6 C143.2 10.3 143.3 10.2 143.6 10.2 L145 10.2 L145 10.2 ZM148.6 13 C148.6 12.6 148.5 12.1 147.7 12.1 C146.7 12.1 145.9 12.6 145.6 12.9 L145.6 16.4 C145.9 16.7 146.7 17.3 147.7 17.3 C148.5 17.3 148.6 16.8 148.6 16.3 L148.6 13 L148.6 13 Z" sketch:type="MSShapeGroup" class="style2"/><path d="M155.4 18.7 C155.4 19.1 155.3 19.2 155 19.2 L153.4 19.2 C153.1 19.2 153 19.1 153 18.7 L153 7 C153 6.7 153.1 6.5 153.4 6.5 L155 6.5 C155.3 6.5 155.4 6.7 155.4 7 L155.4 18.7 " sketch:type="MSShapeGroup" class="style2"/><path d="M164.7 14.8 C164.7 15.1 164.6 15.2 164.3 15.2 L159.7 15.2 L159.7 16.6 C159.7 17.2 160 17.6 161.1 17.6 C162.2 17.6 162.5 17.2 162.5 16.6 L162.5 16.5 C162.5 16.2 162.6 16 163 16 L164.2 16 C164.6 16 164.7 16.2 164.7 16.5 L164.7 16.7 C164.7 18.3 163.8 19.4 161.1 19.4 C158.4 19.4 157.4 18.3 157.4 16.7 L157.4 12.7 C157.4 11.1 158.4 10 161.1 10 C163.8 10 164.7 11.1 164.7 12.7 L164.7 14.8 L164.7 14.8 ZM159.7 13.6 L162.5 13.6 L162.5 12.8 C162.5 12.2 162.1 11.8 161.1 11.8 C160.1 11.8 159.7 12.2 159.7 12.8 L159.7 13.6 L159.7 13.6 Z" sketch:type="MSShapeGroup" class="style2"/></g></g></svg>