<?xml version="1.0" encoding="UTF-8" standalone="no"?>
<svg width="52px" height="52px" viewBox="0 0 52 52" version="1.1" xmlns="http://www.w3.org/2000/svg" xmlns:xlink="http://www.w3.org/1999/xlink" xmlns:sketch="http://www.bohemiancoding.com/sketch/ns">
    <!-- Generator: Sketch 3.0.4 (8054) - http://www.bohemiancoding.com/sketch -->
    <title>Slice 2</title>
    <desc>Created with Sketch.</desc>
    <defs></defs>
    <g id="Page-1" stroke="none" stroke-width="1" fill="none" fill-rule="evenodd" sketch:type="MSPage">
        <g id="Symbol" sketch:type="MSLayerGroup" transform="translate(2.000000, 2.000000)">
            <path d="M14.0465455,32.7218182 L32.9345455,13.8338182 M10.5752727,26.6836364 L26.856,10.4029091 M20.0847273,36.1930909 L36.4069091,19.8709091 M14.0465455,13.8338182 L32.9345455,32.7218182 M20.0847273,10.3636364 L36.4058182,26.6847273 M10.5752727,19.8730909 L26.8974545,36.1941818" id="Stroke-1" stroke="#FFFFFF" stroke-width="3" stroke-linecap="round" stroke-linejoin="round" sketch:type="MSShapeGroup"></path>
            <path d="M23.4905455,3.12872727 C30.816,3.12872727 37.3265455,4.716 39.6894545,7.07890909 C44.988,12.3774545 44.988,34.1781818 39.6894545,39.4767273 C37.3265455,41.8396364 30.816,43.428 23.4905455,43.428 C16.164,43.428 9.65345455,41.8396364 7.29054545,39.4767273 C1.992,34.1781818 1.992,12.3774545 7.29054545,7.07890909 C9.65345455,4.716 16.164,3.12872727 23.4905455,3.12872727 M23.4905455,-0.144 C15.8694545,-0.144 8.24945455,1.49236364 4.97672727,4.76509091 C-1.56872727,11.3105455 -1.56872727,35.2461818 4.97672727,41.7916364 C8.24945455,45.0643636 15.8694545,46.7007273 23.4905455,46.7007273 C31.1105455,46.7007273 38.7305455,45.0643636 42.0032727,41.7916364 C48.5487273,35.2461818 48.5487273,11.3105455 42.0032727,4.76509091 C38.7305455,1.49236364 31.1105455,-0.144 23.4905455,-0.144" id="Fill-2" fill="#FFFFFF" sketch:type="MSShapeGroup"></path>
        </g>
    </g>
</svg>